<?xml version="1.0" encoding="UTF-8"?><svg id="Layer_2" xmlns="http://www.w3.org/2000/svg" viewBox="0 0 415.59 122.28"><defs><style>.cls-1{fill:#fff;}</style></defs><g id="_레이어_1"><path class="cls-1" d="M69.37,64.69c-3.22,0-5.96,1.14-8.22,3.43-2.25,2.29-3.38,5.04-3.38,8.26s1.13,5.96,3.38,8.21c2.25,2.26,4.99,3.38,8.22,3.38,1.93,0,3.51,.61,4.73,1.84,1.22,1.22,1.84,2.8,1.84,4.74s-.61,3.5-1.84,4.69c-1.22,1.19-2.8,1.79-4.73,1.79-6.89,0-12.72-2.38-17.49-7.15-4.77-4.77-7.15-10.6-7.15-17.49s2.37-12.82,7.1-17.59c4.73-4.77,10.58-7.15,17.54-7.15,1.93,0,3.51,.61,4.73,1.84,1.22,1.22,1.84,2.8,1.84,4.73s-.61,3.5-1.84,4.69c-1.22,1.19-2.8,1.79-4.73,1.79Z"/><path class="cls-1" d="M132.08,122.28h-.39c-5.93,0-10.89-2.01-14.88-6.04-3.99-4.03-5.99-8.97-5.99-14.83l-.1-28.79c0-2.13-.76-3.94-2.27-5.46-1.51-1.51-3.33-2.27-5.46-2.27s-4.04,.74-5.55,2.22c-1.52,1.48-2.27,3.32-2.27,5.51v21.93c0,1.93-.61,3.5-1.83,4.69-1.22,1.19-2.8,1.79-4.74,1.79s-3.49-.6-4.68-1.79c-1.19-1.19-1.79-2.75-1.79-4.69V38.51c0-1.93,.59-3.49,1.79-4.69,1.19-1.19,2.75-1.79,4.68-1.79s3.51,.6,4.74,1.79c1.22,1.19,1.83,2.76,1.83,4.69v14.78c2.45-.97,5.06-1.45,7.83-1.45,5.86,0,10.81,2,14.83,5.99,4.02,3.99,6.04,8.92,6.04,14.78v28.79c0,2.19,.75,4.04,2.27,5.56s3.37,2.27,5.56,2.27h.39c1.93,0,3.49,.61,4.69,1.84,1.19,1.22,1.79,2.8,1.79,4.74s-.6,3.49-1.79,4.69c-1.19,1.19-2.75,1.79-4.69,1.79Z"/><path class="cls-1" d="M154.7,51.84c6.96,0,12.82,2.37,17.59,7.1,4.77,4.74,7.15,10.58,7.15,17.54s-2.39,12.82-7.15,17.59c-4.77,4.77-10.63,7.15-17.59,7.15s-12.8-2.38-17.54-7.15c-4.73-4.77-7.1-10.63-7.1-17.59s2.37-12.8,7.1-17.54c4.73-4.73,10.58-7.1,17.54-7.1Zm0,13.05c-3.22,0-5.96,1.13-8.21,3.38-2.25,2.26-3.38,4.99-3.38,8.21s1.13,5.98,3.38,8.26c2.25,2.29,4.99,3.43,8.21,3.43s5.97-1.14,8.26-3.43c2.29-2.29,3.43-5.04,3.43-8.26s-1.14-5.96-3.43-8.21c-2.29-2.25-5.04-3.38-8.26-3.38Z"/><path class="cls-1" d="M210.35,51.84c6.96,0,12.82,2.37,17.59,7.1,4.77,4.74,7.15,10.58,7.15,17.54s-2.39,12.82-7.15,17.59c-4.77,4.77-10.63,7.15-17.59,7.15s-12.8-2.38-17.54-7.15c-4.73-4.77-7.1-10.63-7.1-17.59s2.37-12.8,7.1-17.54c4.73-4.73,10.58-7.1,17.54-7.1Zm0,13.05c-3.22,0-5.96,1.13-8.21,3.38-2.25,2.26-3.38,4.99-3.38,8.21s1.13,5.98,3.38,8.26c2.25,2.29,4.99,3.43,8.21,3.43s5.97-1.14,8.26-3.43c2.29-2.29,3.43-5.04,3.43-8.26s-1.14-5.96-3.43-8.21c-2.29-2.25-5.04-3.38-8.26-3.38Z"/><path class="cls-1" d="M254.41,38.7v55.85c0,1.93-.61,3.5-1.83,4.69-1.22,1.19-2.8,1.79-4.74,1.79s-3.49-.6-4.68-1.79c-1.19-1.19-1.79-2.75-1.79-4.69V38.7c0-1.93,.59-3.49,1.79-4.69,1.19-1.19,2.75-1.79,4.68-1.79,4.38,0,6.57,2.16,6.57,6.47Z"/><path class="cls-1" d="M307.07,80.15c0,5.86-2,10.81-5.99,14.83-3.99,4.03-8.92,6.04-14.78,6.04s-10.89-2-14.88-5.99c-3.99-3.99-5.99-8.95-5.99-14.88V46.91c0-1.93,.59-3.51,1.79-4.73,1.19-1.22,2.75-1.84,4.68-1.84s3.51,.61,4.74,1.84c1.22,1.22,1.83,2.8,1.83,4.73v5.12h22.13c1.93,0,3.49,.6,4.69,1.79,1.19,1.19,1.79,2.75,1.79,4.69,0,4.38-2.16,6.57-6.47,6.57h-22.13v15.07c0,2.19,.76,4.04,2.27,5.56,1.51,1.51,3.36,2.27,5.55,2.27s4.03-.76,5.51-2.27c1.48-1.51,2.22-3.37,2.22-5.56v-.87c0-1.87,.63-3.41,1.88-4.64,1.26-1.22,2.82-1.84,4.69-1.84s3.41,.61,4.64,1.84c1.22,1.22,1.84,2.77,1.84,4.64v.87Z"/><path class="cls-1" d="M326.4,72.62v21.93c0,1.93-.61,3.5-1.83,4.69-1.22,1.19-2.8,1.79-4.74,1.79s-3.49-.6-4.68-1.79c-1.19-1.19-1.79-2.75-1.79-4.69v-21.93c0-5.86,2.01-10.79,6.04-14.78,4.02-3.99,8.97-5.99,14.83-5.99,1.87,0,3.41,.61,4.64,1.84,1.22,1.23,1.83,2.77,1.83,4.64,0,3.99-2.22,6.18-6.67,6.57-2.19,.19-4.01,.98-5.46,2.37-1.45,1.39-2.18,3.17-2.18,5.36Z"/><path class="cls-1" d="M359.01,33.53c1.58,1.58,2.37,3.46,2.37,5.65s-.79,4.07-2.37,5.65c-1.58,1.58-3.46,2.37-5.65,2.37s-4.07-.79-5.65-2.37c-1.58-1.58-2.37-3.46-2.37-5.65s.79-4.07,2.37-5.65c1.58-1.58,3.46-2.37,5.65-2.37s4.08,.79,5.65,2.37Zm.92,24.79c0-4.31-2.19-6.47-6.57-6.47-1.93,0-3.49,.6-4.68,1.79-1.19,1.19-1.79,2.75-1.79,4.69v36.24c0,1.93,.59,3.5,1.79,4.69,1.19,1.19,2.75,1.79,4.68,1.79s3.51-.6,4.74-1.79c1.22-1.19,1.83-2.75,1.83-4.69V58.31Z"/><path class="cls-1" d="M390.85,88.17c3.22,0,5.97-1.14,8.26-3.43,2.29-2.29,3.43-5.04,3.43-8.26s-1.14-5.96-3.43-8.21c-2.29-2.25-5.04-3.38-8.26-3.38s-5.96,1.13-8.21,3.38c-2.25,2.26-3.38,4.99-3.38,8.21v37.78c0,1.93-.61,3.51-1.83,4.74-1.22,1.22-2.8,1.84-4.74,1.84s-3.49-.61-4.68-1.84c-1.19-1.22-1.79-2.8-1.79-4.74v-37.78c0-6.96,2.37-12.8,7.1-17.54,4.73-4.73,10.58-7.1,17.54-7.1s12.82,2.37,17.59,7.1c4.77,4.74,7.15,10.58,7.15,17.54s-2.39,12.82-7.15,17.59c-4.77,4.77-10.63,7.15-17.59,7.15-1.93,0-3.5-.61-4.69-1.84-1.19-1.22-1.79-2.8-1.79-4.73s.59-3.49,1.79-4.69c1.19-1.19,2.75-1.79,4.69-1.79Z"/><g><path class="cls-1" d="M38.68,42.69s.01,.03,.02,.05c.07,.11,.15,.21,.22,.32l-.24-.37Z"/><path class="cls-1" d="M23.9,61.27l-4.24-1.01c-1.91-.45-3.34-1.47-4.37-3.1-.97-1.54-1.28-3.34-.86-5.11,.43-1.81,1.38-3.17,2.92-4.17l.09-.06c1.56-.98,3.46-1.38,5.27-1,2.04,.42,3.53,1.45,4.58,3.17,2.01,3.02,6.1,3.93,9.24,2.05,3.27-1.95,4.25-6.15,2.18-9.3-2.88-4.49-7.09-7.43-12.55-8.73-5.59-1.33-10.84-.56-15.61,2.29-.27,.16-.53,.32-.78,.49-4.33,2.83-7.18,6.89-8.46,12.06-1.36,5.48-.57,10.62,2.35,15.27,2.91,4.65,7.22,7.69,12.8,9.01l4.25,1.01c1.91,.45,3.34,1.47,4.37,3.09,.96,1.52,1.27,3.3,.87,5.04-.42,1.84-1.38,3.22-2.94,4.24l-.29,.18c-1.74,1.04-3.55,1.29-5.53,.77-1.76-.46-3.25-1.64-4.19-3.17l-.49-.74c-2.01-3.02-6.11-3.93-9.25-2.06-3.28,1.96-4.26,6.19-2.16,9.35l.33,.49c2.88,4.67,7.18,7.72,12.77,9.05,5.59,1.33,10.84,.56,15.61-2.29,.27-.16,.78-.49,.78-.49,4.33-2.83,7.18-6.89,8.46-12.06,1.36-5.48,.57-10.62-2.35-15.28-2.91-4.65-7.22-7.69-12.8-9.01Z"/></g><path class="cls-1" d="M51.27,34.02c-2.06,0-4.06-1.06-5.18-2.97-1.68-2.86-.72-6.54,2.14-8.22L85.73,.82c1.88-1.1,4.2-1.1,6.08,0l36.1,21.19h98.65c3.32,0,6,2.69,6,6s-2.69,6-6,6H126.27c-1.07,0-2.12-.29-3.04-.83L88.77,12.96l-34.47,20.23c-.95,.56-2,.83-3.03,.83Z"/></g></svg>